<?xml version="1.0" encoding="utf-8" standalone="no"?>
<!DOCTYPE svg PUBLIC "-//W3C//DTD SVG 1.1//EN"
  "http://www.w3.org/Graphics/SVG/1.1/DTD/svg11.dtd">
<svg xmlns:xlink="http://www.w3.org/1999/xlink" width="864pt" height="432pt" viewBox="0 0 864 432" xmlns="http://www.w3.org/2000/svg" version="1.1">
 <metadata>
  <rdf:RDF xmlns:dc="http://purl.org/dc/elements/1.1/" xmlns:cc="http://creativecommons.org/ns#" xmlns:rdf="http://www.w3.org/1999/02/22-rdf-syntax-ns#">
   <cc:Work>
    <dc:type rdf:resource="http://purl.org/dc/dcmitype/StillImage"/>
    <dc:date>2025-04-05T20:12:10.780480</dc:date>
    <dc:format>image/svg+xml</dc:format>
    <dc:creator>
     <cc:Agent>
      <dc:title>Matplotlib v3.9.2, https://matplotlib.org/</dc:title>
     </cc:Agent>
    </dc:creator>
   </cc:Work>
  </rdf:RDF>
 </metadata>
 <defs>
  <style type="text/css">*{stroke-linejoin: round; stroke-linecap: butt}</style>
 </defs>
 <g id="figure_1">
  <g id="patch_1">
   <path d="M 0 432 
L 864 432 
L 864 0 
L 0 0 
z
" style="fill: #ffffff"/>
  </g>
  <g id="axes_1">
   <g id="patch_2">
    <path d="M 52.938 389.412 
L 429.651 389.412 
L 429.651 23.568 
L 52.938 23.568 
z
" style="fill: #eaeaf2"/>
   </g>
   <g id="matplotlib.axis_1">
    <g id="xtick_1">
     <g id="text_1">
      <!-- 0 -->
      <g style="fill: #262626" transform="translate(67.261818 405.598625) scale(0.088 -0.088)">
       <defs>
        <path id="DejaVuSans-30" d="M 2034 4250 
Q 1547 4250 1301 3770 
Q 1056 3291 1056 2328 
Q 1056 1369 1301 889 
Q 1547 409 2034 409 
Q 2525 409 2770 889 
Q 3016 1369 3016 2328 
Q 3016 3291 2770 3770 
Q 2525 4250 2034 4250 
z
M 2034 4750 
Q 2819 4750 3233 4129 
Q 3647 3509 3647 2328 
Q 3647 1150 3233 529 
Q 2819 -91 2034 -91 
Q 1250 -91 836 529 
Q 422 1150 422 2328 
Q 422 3509 836 4129 
Q 1250 4750 2034 4750 
z
" transform="scale(0.015625)"/>
       </defs>
       <use xlink:href="#DejaVuSans-30"/>
      </g>
     </g>
    </g>
    <g id="xtick_2">
     <g id="text_2">
      <!-- 25 -->
      <g style="fill: #262626" transform="translate(113.667255 405.598625) scale(0.088 -0.088)">
       <defs>
        <path id="DejaVuSans-32" d="M 1228 531 
L 3431 531 
L 3431 0 
L 469 0 
L 469 531 
Q 828 903 1448 1529 
Q 2069 2156 2228 2338 
Q 2531 2678 2651 2914 
Q 2772 3150 2772 3378 
Q 2772 3750 2511 3984 
Q 2250 4219 1831 4219 
Q 1534 4219 1204 4116 
Q 875 4013 500 3803 
L 500 4441 
Q 881 4594 1212 4672 
Q 1544 4750 1819 4750 
Q 2544 4750 2975 4387 
Q 3406 4025 3406 3419 
Q 3406 3131 3298 2873 
Q 3191 2616 2906 2266 
Q 2828 2175 2409 1742 
Q 1991 1309 1228 531 
z
" transform="scale(0.015625)"/>
        <path id="DejaVuSans-35" d="M 691 4666 
L 3169 4666 
L 3169 4134 
L 1269 4134 
L 1269 2991 
Q 1406 3038 1543 3061 
Q 1681 3084 1819 3084 
Q 2600 3084 3056 2656 
Q 3513 2228 3513 1497 
Q 3513 744 3044 326 
Q 2575 -91 1722 -91 
Q 1428 -91 1123 -41 
Q 819 9 494 109 
L 494 744 
Q 775 591 1075 516 
Q 1375 441 1709 441 
Q 2250 441 2565 725 
Q 2881 1009 2881 1497 
Q 2881 1984 2565 2268 
Q 2250 2553 1709 2553 
Q 1456 2553 1204 2497 
Q 953 2441 691 2322 
L 691 4666 
z
" transform="scale(0.015625)"/>
       </defs>
       <use xlink:href="#DejaVuSans-32"/>
       <use xlink:href="#DejaVuSans-35" x="63.623047"/>
      </g>
     </g>
    </g>
    <g id="xtick_3">
     <g id="text_3">
      <!-- 50 -->
      <g style="fill: #262626" transform="translate(162.872193 405.598625) scale(0.088 -0.088)">
       <use xlink:href="#DejaVuSans-35"/>
       <use xlink:href="#DejaVuSans-30" x="63.623047"/>
      </g>
     </g>
    </g>
    <g id="xtick_4">
     <g id="text_4">
      <!-- 75 -->
      <g style="fill: #262626" transform="translate(212.07713 405.598625) scale(0.088 -0.088)">
       <defs>
        <path id="DejaVuSans-37" d="M 525 4666 
L 3525 4666 
L 3525 4397 
L 1831 0 
L 1172 0 
L 2766 4134 
L 525 4134 
L 525 4666 
z
" transform="scale(0.015625)"/>
       </defs>
       <use xlink:href="#DejaVuSans-37"/>
       <use xlink:href="#DejaVuSans-35" x="63.623047"/>
      </g>
     </g>
    </g>
    <g id="xtick_5">
     <g id="text_5">
      <!-- 100 -->
      <g style="fill: #262626" transform="translate(258.482567 405.598625) scale(0.088 -0.088)">
       <defs>
        <path id="DejaVuSans-31" d="M 794 531 
L 1825 531 
L 1825 4091 
L 703 3866 
L 703 4441 
L 1819 4666 
L 2450 4666 
L 2450 531 
L 3481 531 
L 3481 0 
L 794 0 
L 794 531 
z
" transform="scale(0.015625)"/>
       </defs>
       <use xlink:href="#DejaVuSans-31"/>
       <use xlink:href="#DejaVuSans-30" x="63.623047"/>
       <use xlink:href="#DejaVuSans-30" x="127.246094"/>
      </g>
     </g>
    </g>
    <g id="xtick_6">
     <g id="text_6">
      <!-- 125 -->
      <g style="fill: #262626" transform="translate(307.687505 405.598625) scale(0.088 -0.088)">
       <use xlink:href="#DejaVuSans-31"/>
       <use xlink:href="#DejaVuSans-32" x="63.623047"/>
       <use xlink:href="#DejaVuSans-35" x="127.246094"/>
      </g>
     </g>
    </g>
    <g id="xtick_7">
     <g id="text_7">
      <!-- 150 -->
      <g style="fill: #262626" transform="translate(356.892442 405.598625) scale(0.088 -0.088)">
       <use xlink:href="#DejaVuSans-31"/>
       <use xlink:href="#DejaVuSans-35" x="63.623047"/>
       <use xlink:href="#DejaVuSans-30" x="127.246094"/>
      </g>
     </g>
    </g>
    <g id="xtick_8">
     <g id="text_8">
      <!-- 175 -->
      <g style="fill: #262626" transform="translate(406.097379 405.598625) scale(0.088 -0.088)">
       <use xlink:href="#DejaVuSans-31"/>
       <use xlink:href="#DejaVuSans-37" x="63.623047"/>
       <use xlink:href="#DejaVuSans-35" x="127.246094"/>
      </g>
     </g>
    </g>
    <g id="text_9">
     <!-- Epoch -->
     <g style="fill: #262626" transform="translate(226.596 418.72325) scale(0.096 -0.096)">
      <defs>
       <path id="DejaVuSans-45" d="M 628 4666 
L 3578 4666 
L 3578 4134 
L 1259 4134 
L 1259 2753 
L 3481 2753 
L 3481 2222 
L 1259 2222 
L 1259 531 
L 3634 531 
L 3634 0 
L 628 0 
L 628 4666 
z
" transform="scale(0.015625)"/>
       <path id="DejaVuSans-70" d="M 1159 525 
L 1159 -1331 
L 581 -1331 
L 581 3500 
L 1159 3500 
L 1159 2969 
Q 1341 3281 1617 3432 
Q 1894 3584 2278 3584 
Q 2916 3584 3314 3078 
Q 3713 2572 3713 1747 
Q 3713 922 3314 415 
Q 2916 -91 2278 -91 
Q 1894 -91 1617 61 
Q 1341 213 1159 525 
z
M 3116 1747 
Q 3116 2381 2855 2742 
Q 2594 3103 2138 3103 
Q 1681 3103 1420 2742 
Q 1159 2381 1159 1747 
Q 1159 1113 1420 752 
Q 1681 391 2138 391 
Q 2594 391 2855 752 
Q 3116 1113 3116 1747 
z
" transform="scale(0.015625)"/>
       <path id="DejaVuSans-6f" d="M 1959 3097 
Q 1497 3097 1228 2736 
Q 959 2375 959 1747 
Q 959 1119 1226 758 
Q 1494 397 1959 397 
Q 2419 397 2687 759 
Q 2956 1122 2956 1747 
Q 2956 2369 2687 2733 
Q 2419 3097 1959 3097 
z
M 1959 3584 
Q 2709 3584 3137 3096 
Q 3566 2609 3566 1747 
Q 3566 888 3137 398 
Q 2709 -91 1959 -91 
Q 1206 -91 779 398 
Q 353 888 353 1747 
Q 353 2609 779 3096 
Q 1206 3584 1959 3584 
z
" transform="scale(0.015625)"/>
       <path id="DejaVuSans-63" d="M 3122 3366 
L 3122 2828 
Q 2878 2963 2633 3030 
Q 2388 3097 2138 3097 
Q 1578 3097 1268 2742 
Q 959 2388 959 1747 
Q 959 1106 1268 751 
Q 1578 397 2138 397 
Q 2388 397 2633 464 
Q 2878 531 3122 666 
L 3122 134 
Q 2881 22 2623 -34 
Q 2366 -91 2075 -91 
Q 1284 -91 818 406 
Q 353 903 353 1747 
Q 353 2603 823 3093 
Q 1294 3584 2113 3584 
Q 2378 3584 2631 3529 
Q 2884 3475 3122 3366 
z
" transform="scale(0.015625)"/>
       <path id="DejaVuSans-68" d="M 3513 2113 
L 3513 0 
L 2938 0 
L 2938 2094 
Q 2938 2591 2744 2837 
Q 2550 3084 2163 3084 
Q 1697 3084 1428 2787 
Q 1159 2491 1159 1978 
L 1159 0 
L 581 0 
L 581 4863 
L 1159 4863 
L 1159 2956 
Q 1366 3272 1645 3428 
Q 1925 3584 2291 3584 
Q 2894 3584 3203 3211 
Q 3513 2838 3513 2113 
z
" transform="scale(0.015625)"/>
      </defs>
      <use xlink:href="#DejaVuSans-45"/>
      <use xlink:href="#DejaVuSans-70" x="63.183594"/>
      <use xlink:href="#DejaVuSans-6f" x="126.660156"/>
      <use xlink:href="#DejaVuSans-63" x="187.841797"/>
      <use xlink:href="#DejaVuSans-68" x="242.822266"/>
     </g>
    </g>
   </g>
   <g id="matplotlib.axis_2">
    <g id="ytick_1">
     <g id="text_10">
      <!-- 1.70 -->
      <g style="fill: #262626" transform="translate(23.84425 340.844864) scale(0.088 -0.088)">
       <defs>
        <path id="DejaVuSans-2e" d="M 684 794 
L 1344 794 
L 1344 0 
L 684 0 
L 684 794 
z
" transform="scale(0.015625)"/>
       </defs>
       <use xlink:href="#DejaVuSans-31"/>
       <use xlink:href="#DejaVuSans-2e" x="63.623047"/>
       <use xlink:href="#DejaVuSans-37" x="95.410156"/>
       <use xlink:href="#DejaVuSans-30" x="159.033203"/>
      </g>
     </g>
    </g>
    <g id="ytick_2">
     <g id="text_11">
      <!-- 1.75 -->
      <g style="fill: #262626" transform="translate(23.84425 280.372207) scale(0.088 -0.088)">
       <use xlink:href="#DejaVuSans-31"/>
       <use xlink:href="#DejaVuSans-2e" x="63.623047"/>
       <use xlink:href="#DejaVuSans-37" x="95.410156"/>
       <use xlink:href="#DejaVuSans-35" x="159.033203"/>
      </g>
     </g>
    </g>
    <g id="ytick_3">
     <g id="text_12">
      <!-- 1.80 -->
      <g style="fill: #262626" transform="translate(23.84425 219.89955) scale(0.088 -0.088)">
       <defs>
        <path id="DejaVuSans-38" d="M 2034 2216 
Q 1584 2216 1326 1975 
Q 1069 1734 1069 1313 
Q 1069 891 1326 650 
Q 1584 409 2034 409 
Q 2484 409 2743 651 
Q 3003 894 3003 1313 
Q 3003 1734 2745 1975 
Q 2488 2216 2034 2216 
z
M 1403 2484 
Q 997 2584 770 2862 
Q 544 3141 544 3541 
Q 544 4100 942 4425 
Q 1341 4750 2034 4750 
Q 2731 4750 3128 4425 
Q 3525 4100 3525 3541 
Q 3525 3141 3298 2862 
Q 3072 2584 2669 2484 
Q 3125 2378 3379 2068 
Q 3634 1759 3634 1313 
Q 3634 634 3220 271 
Q 2806 -91 2034 -91 
Q 1263 -91 848 271 
Q 434 634 434 1313 
Q 434 1759 690 2068 
Q 947 2378 1403 2484 
z
M 1172 3481 
Q 1172 3119 1398 2916 
Q 1625 2713 2034 2713 
Q 2441 2713 2670 2916 
Q 2900 3119 2900 3481 
Q 2900 3844 2670 4047 
Q 2441 4250 2034 4250 
Q 1625 4250 1398 4047 
Q 1172 3844 1172 3481 
z
" transform="scale(0.015625)"/>
       </defs>
       <use xlink:href="#DejaVuSans-31"/>
       <use xlink:href="#DejaVuSans-2e" x="63.623047"/>
       <use xlink:href="#DejaVuSans-38" x="95.410156"/>
       <use xlink:href="#DejaVuSans-30" x="159.033203"/>
      </g>
     </g>
    </g>
    <g id="ytick_4">
     <g id="text_13">
      <!-- 1.85 -->
      <g style="fill: #262626" transform="translate(23.84425 159.426893) scale(0.088 -0.088)">
       <use xlink:href="#DejaVuSans-31"/>
       <use xlink:href="#DejaVuSans-2e" x="63.623047"/>
       <use xlink:href="#DejaVuSans-38" x="95.410156"/>
       <use xlink:href="#DejaVuSans-35" x="159.033203"/>
      </g>
     </g>
    </g>
    <g id="ytick_5">
     <g id="text_14">
      <!-- 1.90 -->
      <g style="fill: #262626" transform="translate(23.84425 98.954236) scale(0.088 -0.088)">
       <defs>
        <path id="DejaVuSans-39" d="M 703 97 
L 703 672 
Q 941 559 1184 500 
Q 1428 441 1663 441 
Q 2288 441 2617 861 
Q 2947 1281 2994 2138 
Q 2813 1869 2534 1725 
Q 2256 1581 1919 1581 
Q 1219 1581 811 2004 
Q 403 2428 403 3163 
Q 403 3881 828 4315 
Q 1253 4750 1959 4750 
Q 2769 4750 3195 4129 
Q 3622 3509 3622 2328 
Q 3622 1225 3098 567 
Q 2575 -91 1691 -91 
Q 1453 -91 1209 -44 
Q 966 3 703 97 
z
M 1959 2075 
Q 2384 2075 2632 2365 
Q 2881 2656 2881 3163 
Q 2881 3666 2632 3958 
Q 2384 4250 1959 4250 
Q 1534 4250 1286 3958 
Q 1038 3666 1038 3163 
Q 1038 2656 1286 2365 
Q 1534 2075 1959 2075 
z
" transform="scale(0.015625)"/>
       </defs>
       <use xlink:href="#DejaVuSans-31"/>
       <use xlink:href="#DejaVuSans-2e" x="63.623047"/>
       <use xlink:href="#DejaVuSans-39" x="95.410156"/>
       <use xlink:href="#DejaVuSans-30" x="159.033203"/>
      </g>
     </g>
    </g>
    <g id="ytick_6">
     <g id="text_15">
      <!-- 1.95 -->
      <g style="fill: #262626" transform="translate(23.84425 38.481579) scale(0.088 -0.088)">
       <use xlink:href="#DejaVuSans-31"/>
       <use xlink:href="#DejaVuSans-2e" x="63.623047"/>
       <use xlink:href="#DejaVuSans-39" x="95.410156"/>
       <use xlink:href="#DejaVuSans-35" x="159.033203"/>
      </g>
     </g>
    </g>
    <g id="text_16">
     <!-- Loss -->
     <g style="fill: #262626" transform="translate(17.84775 217.0185) rotate(-90) scale(0.096 -0.096)">
      <defs>
       <path id="DejaVuSans-4c" d="M 628 4666 
L 1259 4666 
L 1259 531 
L 3531 531 
L 3531 0 
L 628 0 
L 628 4666 
z
" transform="scale(0.015625)"/>
       <path id="DejaVuSans-73" d="M 2834 3397 
L 2834 2853 
Q 2591 2978 2328 3040 
Q 2066 3103 1784 3103 
Q 1356 3103 1142 2972 
Q 928 2841 928 2578 
Q 928 2378 1081 2264 
Q 1234 2150 1697 2047 
L 1894 2003 
Q 2506 1872 2764 1633 
Q 3022 1394 3022 966 
Q 3022 478 2636 193 
Q 2250 -91 1575 -91 
Q 1294 -91 989 -36 
Q 684 19 347 128 
L 347 722 
Q 666 556 975 473 
Q 1284 391 1588 391 
Q 1994 391 2212 530 
Q 2431 669 2431 922 
Q 2431 1156 2273 1281 
Q 2116 1406 1581 1522 
L 1381 1569 
Q 847 1681 609 1914 
Q 372 2147 372 2553 
Q 372 3047 722 3315 
Q 1072 3584 1716 3584 
Q 2034 3584 2315 3537 
Q 2597 3491 2834 3397 
z
" transform="scale(0.015625)"/>
      </defs>
      <use xlink:href="#DejaVuSans-4c"/>
      <use xlink:href="#DejaVuSans-6f" x="53.962891"/>
      <use xlink:href="#DejaVuSans-73" x="115.144531"/>
      <use xlink:href="#DejaVuSans-73" x="167.244141"/>
     </g>
    </g>
   </g>
   <g id="line2d_1">
    <path d="M 70.061318 40.197273 
L 72.029516 40.809741 
L 73.997713 41.755117 
L 75.965911 42.96751 
L 79.902306 45.863326 
L 83.838701 48.960847 
L 95.647886 59.990324 
L 97.616083 61.654138 
L 99.584281 63.900432 
L 107.457071 71.885445 
L 109.425268 74.272457 
L 111.393466 75.736585 
L 113.361663 77.927371 
L 115.329861 80.462742 
L 117.298058 82.73816 
L 119.266255 84.650681 
L 123.20265 88.874089 
L 125.170848 91.199104 
L 127.139045 92.856863 
L 131.07544 97.37079 
L 133.043638 99.147352 
L 135.011835 101.94902 
L 136.980033 103.464619 
L 138.94823 105.708318 
L 140.916428 107.624156 
L 142.884625 110.265354 
L 144.852823 113.234845 
L 146.82102 114.234575 
L 148.789218 116.771676 
L 152.725613 121.433241 
L 154.69381 124.244136 
L 156.662008 126.409114 
L 158.630205 127.729641 
L 160.598403 130.604407 
L 162.5666 131.966024 
L 164.534798 134.669074 
L 166.502995 136.719575 
L 172.407588 144.383647 
L 174.375785 146.202597 
L 176.343983 148.314806 
L 178.31218 150.95485 
L 180.280378 152.056803 
L 182.248575 154.946708 
L 184.216773 157.3924 
L 186.18497 160.331181 
L 188.153168 161.124161 
L 192.089563 167.604964 
L 194.05776 168.265011 
L 196.025958 170.715894 
L 197.994155 174.216825 
L 199.962353 175.495396 
L 201.93055 177.674791 
L 203.898748 180.638371 
L 205.866945 183.338105 
L 207.835143 184.613792 
L 213.739735 192.071114 
L 219.644328 198.521784 
L 221.612525 201.748344 
L 223.580723 203.663029 
L 225.54892 206.570668 
L 227.517118 209.06985 
L 229.485315 210.948778 
L 231.453513 214.30582 
L 233.42171 215.626058 
L 235.389908 218.812682 
L 237.358105 220.483849 
L 239.326303 221.725367 
L 241.2945 224.268235 
L 243.262697 228.48328 
L 249.16729 234.473013 
L 251.135487 235.073515 
L 253.103685 237.764886 
L 255.071882 241.668363 
L 257.04008 243.427767 
L 259.008277 246.430852 
L 260.976475 249.644004 
L 264.91287 252.714996 
L 266.881067 255.671656 
L 270.817462 260.348792 
L 272.78566 262.278326 
L 274.753857 266.065884 
L 276.722055 267.782756 
L 278.690252 267.771366 
L 280.65845 274.677062 
L 282.626647 275.685587 
L 284.594845 275.100225 
L 286.563042 278.99505 
L 288.53124 281.016715 
L 290.499437 283.888453 
L 292.467635 287.536014 
L 294.435832 290.374735 
L 296.40403 291.902734 
L 298.372227 291.946853 
L 300.340425 296.787198 
L 302.308622 300.12319 
L 304.27682 298.160494 
L 306.245017 301.834295 
L 308.213215 307.753092 
L 310.181412 308.020831 
L 312.14961 311.868078 
L 314.117807 312.93067 
L 316.086005 314.850834 
L 318.054202 317.968972 
L 320.0224 320.64434 
L 321.990597 324.519846 
L 323.958795 326.97491 
L 325.926992 326.3548 
L 327.89519 327.088522 
L 329.863387 329.771099 
L 333.799782 332.48972 
L 335.76798 334.833911 
L 337.736177 337.697864 
L 339.704375 338.728881 
L 341.672572 340.326374 
L 343.64077 342.956614 
L 345.608967 342.502309 
L 347.577165 342.343281 
L 349.545362 345.232176 
L 351.51356 347.177282 
L 353.481757 346.837887 
L 355.449955 349.525366 
L 357.418152 349.933823 
L 359.38635 350.782455 
L 361.354547 350.692343 
L 363.322745 353.429564 
L 365.290942 353.58023 
L 367.259139 355.446614 
L 369.227337 357.869382 
L 371.195534 357.246822 
L 373.163732 358.838115 
L 375.131929 361.150154 
L 377.100127 362.850157 
L 379.068324 362.086735 
L 381.036522 363.587051 
L 383.004719 364.131612 
L 384.972917 365.430368 
L 386.941114 368.114963 
L 388.909312 366.364353 
L 390.877509 367.418295 
L 392.845707 367.285362 
L 394.813904 366.668425 
L 396.782102 367.487356 
L 398.750299 368.16456 
L 400.718497 368.598104 
L 402.686694 369.913584 
L 404.654892 369.049237 
L 406.623089 370.353615 
L 408.591287 372.730679 
L 410.559484 372.782727 
L 412.527682 371.165482 
L 412.527682 371.165482 
" clip-path="url(#p91e1d79ebf)" style="fill: none; stroke: #4c72b0; stroke-width: 1.5; stroke-linecap: round"/>
   </g>
   <g id="line2d_2">
    <path d="M 70.061318 40.385425 
L 72.029516 41.095358 
L 75.965911 43.045798 
L 77.934108 44.295534 
L 81.870503 46.449698 
L 83.838701 47.834384 
L 85.806898 48.793745 
L 93.679688 54.225653 
L 95.647886 55.849242 
L 97.616083 57.092633 
L 99.584281 59.163607 
L 101.552478 60.873126 
L 103.520676 61.953019 
L 105.488873 63.15979 
L 107.457071 64.835715 
L 109.425268 66.025617 
L 111.393466 67.712356 
L 113.361663 70.319527 
L 117.298058 72.771275 
L 119.266255 73.674262 
L 121.234453 75.107825 
L 123.20265 77.712401 
L 125.170848 78.104998 
L 127.139045 81.370487 
L 129.107243 81.452812 
L 131.07544 84.032878 
L 133.043638 87.159091 
L 135.011835 86.223376 
L 136.980033 87.934336 
L 138.94823 89.92904 
L 140.916428 91.425896 
L 142.884625 94.91933 
L 144.852823 94.720509 
L 146.82102 97.80664 
L 148.789218 96.811379 
L 150.757415 100.106568 
L 152.725613 103.944155 
L 154.69381 105.363444 
L 156.662008 107.187008 
L 158.630205 111.411137 
L 160.598403 108.987359 
L 162.5666 111.623078 
L 164.534798 113.224176 
L 166.502995 118.250078 
L 168.471193 116.207364 
L 170.43939 117.251357 
L 172.407588 120.822503 
L 174.375785 125.650305 
L 176.343983 124.269079 
L 178.31218 121.84386 
L 180.280378 131.03103 
L 182.248575 132.946147 
L 184.216773 132.058587 
L 186.18497 132.191951 
L 188.153168 134.50327 
L 190.121365 137.772795 
L 192.089563 142.419365 
L 194.05776 144.700839 
L 196.025958 141.820306 
L 197.994155 141.617303 
L 199.962353 145.65919 
L 201.93055 148.963607 
L 203.898748 149.027766 
L 205.866945 148.111947 
L 207.835143 150.959464 
L 209.80334 151.517433 
L 211.771538 158.999985 
L 213.739735 159.449388 
L 215.707933 159.408298 
L 219.644328 169.090286 
L 221.612525 168.841867 
L 223.580723 167.953875 
L 225.54892 166.94088 
L 227.517118 168.915975 
L 229.485315 174.261376 
L 231.453513 177.749043 
L 233.42171 174.806802 
L 235.389908 181.467972 
L 237.358105 184.757682 
L 241.2945 180.961186 
L 243.262697 189.606823 
L 245.230895 184.609611 
L 247.199092 190.519614 
L 249.16729 182.268304 
L 251.135487 190.313583 
L 253.103685 195.063385 
L 255.071882 192.674499 
L 257.04008 196.48772 
L 259.008277 201.539863 
L 260.976475 199.915121 
L 262.944672 195.894716 
L 264.91287 206.095168 
L 266.881067 204.39257 
L 268.849265 211.01856 
L 270.817462 209.09609 
L 272.78566 213.896498 
L 274.753857 221.890739 
L 276.722055 220.179201 
L 278.690252 213.201272 
L 280.65845 212.864039 
L 282.626647 212.257338 
L 284.594845 225.299108 
L 286.563042 225.495623 
L 288.53124 222.838421 
L 290.499437 228.629477 
L 292.467635 222.733171 
L 294.435832 231.940093 
L 296.40403 230.022525 
L 298.372227 231.835564 
L 300.340425 241.679176 
L 304.27682 235.224036 
L 306.245017 242.804486 
L 308.213215 236.58551 
L 310.181412 243.018013 
L 312.14961 255.711305 
L 314.117807 242.522618 
L 316.086005 245.680261 
L 318.054202 246.835127 
L 320.0224 241.309215 
L 321.990597 244.961245 
L 323.958795 254.497037 
L 325.926992 258.288055 
L 327.89519 252.954188 
L 329.863387 256.503707 
L 331.831585 266.825702 
L 333.799782 263.315543 
L 335.76798 256.251972 
L 337.736177 260.305682 
L 339.704375 262.741715 
L 341.672572 262.506416 
L 343.64077 266.639136 
L 345.608967 264.150911 
L 347.577165 260.442075 
L 349.545362 274.546293 
L 351.51356 272.179321 
L 353.481757 272.360265 
L 355.449955 272.326095 
L 357.418152 279.545522 
L 359.38635 269.622468 
L 361.354547 284.591321 
L 363.322745 281.994531 
L 365.290942 276.770816 
L 367.259139 282.613775 
L 369.227337 273.638259 
L 371.195534 267.156591 
L 373.163732 287.624972 
L 375.131929 281.626588 
L 377.100127 282.482717 
L 379.068324 284.126491 
L 381.036522 281.515427 
L 383.004719 281.289644 
L 384.972917 281.236587 
L 386.941114 285.820583 
L 388.909312 271.819453 
L 390.877509 287.206279 
L 392.845707 292.966913 
L 394.813904 285.278186 
L 396.782102 283.974816 
L 398.750299 291.600681 
L 400.718497 291.467749 
L 402.686694 288.560831 
L 406.623089 285.963464 
L 408.591287 288.721734 
L 410.559484 281.879044 
L 412.527682 288.293525 
L 412.527682 288.293525 
" clip-path="url(#p91e1d79ebf)" style="fill: none; stroke: #dd8452; stroke-width: 1.5; stroke-linecap: round"/>
   </g>
   <g id="patch_3">
    <path d="M 52.938 389.412 
L 52.938 23.568 
" style="fill: none; stroke: #ffffff; stroke-width: 1.25; stroke-linejoin: miter; stroke-linecap: square"/>
   </g>
   <g id="patch_4">
    <path d="M 429.651 389.412 
L 429.651 23.568 
" style="fill: none; stroke: #ffffff; stroke-width: 1.25; stroke-linejoin: miter; stroke-linecap: square"/>
   </g>
   <g id="patch_5">
    <path d="M 52.938 389.412 
L 429.651 389.412 
" style="fill: none; stroke: #ffffff; stroke-width: 1.25; stroke-linejoin: miter; stroke-linecap: square"/>
   </g>
   <g id="patch_6">
    <path d="M 52.938 23.568 
L 429.651 23.568 
" style="fill: none; stroke: #ffffff; stroke-width: 1.25; stroke-linejoin: miter; stroke-linecap: square"/>
   </g>
   <g id="text_17">
    <!-- Training and Validation Loss -->
    <g style="fill: #262626" transform="translate(174.519 17.568) scale(0.096 -0.096)">
     <defs>
      <path id="DejaVuSans-54" d="M -19 4666 
L 3928 4666 
L 3928 4134 
L 2272 4134 
L 2272 0 
L 1638 0 
L 1638 4134 
L -19 4134 
L -19 4666 
z
" transform="scale(0.015625)"/>
      <path id="DejaVuSans-72" d="M 2631 2963 
Q 2534 3019 2420 3045 
Q 2306 3072 2169 3072 
Q 1681 3072 1420 2755 
Q 1159 2438 1159 1844 
L 1159 0 
L 581 0 
L 581 3500 
L 1159 3500 
L 1159 2956 
Q 1341 3275 1631 3429 
Q 1922 3584 2338 3584 
Q 2397 3584 2469 3576 
Q 2541 3569 2628 3553 
L 2631 2963 
z
" transform="scale(0.015625)"/>
      <path id="DejaVuSans-61" d="M 2194 1759 
Q 1497 1759 1228 1600 
Q 959 1441 959 1056 
Q 959 750 1161 570 
Q 1363 391 1709 391 
Q 2188 391 2477 730 
Q 2766 1069 2766 1631 
L 2766 1759 
L 2194 1759 
z
M 3341 1997 
L 3341 0 
L 2766 0 
L 2766 531 
Q 2569 213 2275 61 
Q 1981 -91 1556 -91 
Q 1019 -91 701 211 
Q 384 513 384 1019 
Q 384 1609 779 1909 
Q 1175 2209 1959 2209 
L 2766 2209 
L 2766 2266 
Q 2766 2663 2505 2880 
Q 2244 3097 1772 3097 
Q 1472 3097 1187 3025 
Q 903 2953 641 2809 
L 641 3341 
Q 956 3463 1253 3523 
Q 1550 3584 1831 3584 
Q 2591 3584 2966 3190 
Q 3341 2797 3341 1997 
z
" transform="scale(0.015625)"/>
      <path id="DejaVuSans-69" d="M 603 3500 
L 1178 3500 
L 1178 0 
L 603 0 
L 603 3500 
z
M 603 4863 
L 1178 4863 
L 1178 4134 
L 603 4134 
L 603 4863 
z
" transform="scale(0.015625)"/>
      <path id="DejaVuSans-6e" d="M 3513 2113 
L 3513 0 
L 2938 0 
L 2938 2094 
Q 2938 2591 2744 2837 
Q 2550 3084 2163 3084 
Q 1697 3084 1428 2787 
Q 1159 2491 1159 1978 
L 1159 0 
L 581 0 
L 581 3500 
L 1159 3500 
L 1159 2956 
Q 1366 3272 1645 3428 
Q 1925 3584 2291 3584 
Q 2894 3584 3203 3211 
Q 3513 2838 3513 2113 
z
" transform="scale(0.015625)"/>
      <path id="DejaVuSans-67" d="M 2906 1791 
Q 2906 2416 2648 2759 
Q 2391 3103 1925 3103 
Q 1463 3103 1205 2759 
Q 947 2416 947 1791 
Q 947 1169 1205 825 
Q 1463 481 1925 481 
Q 2391 481 2648 825 
Q 2906 1169 2906 1791 
z
M 3481 434 
Q 3481 -459 3084 -895 
Q 2688 -1331 1869 -1331 
Q 1566 -1331 1297 -1286 
Q 1028 -1241 775 -1147 
L 775 -588 
Q 1028 -725 1275 -790 
Q 1522 -856 1778 -856 
Q 2344 -856 2625 -561 
Q 2906 -266 2906 331 
L 2906 616 
Q 2728 306 2450 153 
Q 2172 0 1784 0 
Q 1141 0 747 490 
Q 353 981 353 1791 
Q 353 2603 747 3093 
Q 1141 3584 1784 3584 
Q 2172 3584 2450 3431 
Q 2728 3278 2906 2969 
L 2906 3500 
L 3481 3500 
L 3481 434 
z
" transform="scale(0.015625)"/>
      <path id="DejaVuSans-20" transform="scale(0.015625)"/>
      <path id="DejaVuSans-64" d="M 2906 2969 
L 2906 4863 
L 3481 4863 
L 3481 0 
L 2906 0 
L 2906 525 
Q 2725 213 2448 61 
Q 2172 -91 1784 -91 
Q 1150 -91 751 415 
Q 353 922 353 1747 
Q 353 2572 751 3078 
Q 1150 3584 1784 3584 
Q 2172 3584 2448 3432 
Q 2725 3281 2906 2969 
z
M 947 1747 
Q 947 1113 1208 752 
Q 1469 391 1925 391 
Q 2381 391 2643 752 
Q 2906 1113 2906 1747 
Q 2906 2381 2643 2742 
Q 2381 3103 1925 3103 
Q 1469 3103 1208 2742 
Q 947 2381 947 1747 
z
" transform="scale(0.015625)"/>
      <path id="DejaVuSans-56" d="M 1831 0 
L 50 4666 
L 709 4666 
L 2188 738 
L 3669 4666 
L 4325 4666 
L 2547 0 
L 1831 0 
z
" transform="scale(0.015625)"/>
      <path id="DejaVuSans-6c" d="M 603 4863 
L 1178 4863 
L 1178 0 
L 603 0 
L 603 4863 
z
" transform="scale(0.015625)"/>
      <path id="DejaVuSans-74" d="M 1172 4494 
L 1172 3500 
L 2356 3500 
L 2356 3053 
L 1172 3053 
L 1172 1153 
Q 1172 725 1289 603 
Q 1406 481 1766 481 
L 2356 481 
L 2356 0 
L 1766 0 
Q 1100 0 847 248 
Q 594 497 594 1153 
L 594 3053 
L 172 3053 
L 172 3500 
L 594 3500 
L 594 4494 
L 1172 4494 
z
" transform="scale(0.015625)"/>
     </defs>
     <use xlink:href="#DejaVuSans-54"/>
     <use xlink:href="#DejaVuSans-72" x="46.333984"/>
     <use xlink:href="#DejaVuSans-61" x="87.447266"/>
     <use xlink:href="#DejaVuSans-69" x="148.726562"/>
     <use xlink:href="#DejaVuSans-6e" x="176.509766"/>
     <use xlink:href="#DejaVuSans-69" x="239.888672"/>
     <use xlink:href="#DejaVuSans-6e" x="267.671875"/>
     <use xlink:href="#DejaVuSans-67" x="331.050781"/>
     <use xlink:href="#DejaVuSans-20" x="394.527344"/>
     <use xlink:href="#DejaVuSans-61" x="426.314453"/>
     <use xlink:href="#DejaVuSans-6e" x="487.59375"/>
     <use xlink:href="#DejaVuSans-64" x="550.972656"/>
     <use xlink:href="#DejaVuSans-20" x="614.449219"/>
     <use xlink:href="#DejaVuSans-56" x="646.236328"/>
     <use xlink:href="#DejaVuSans-61" x="706.894531"/>
     <use xlink:href="#DejaVuSans-6c" x="768.173828"/>
     <use xlink:href="#DejaVuSans-69" x="795.957031"/>
     <use xlink:href="#DejaVuSans-64" x="823.740234"/>
     <use xlink:href="#DejaVuSans-61" x="887.216797"/>
     <use xlink:href="#DejaVuSans-74" x="948.496094"/>
     <use xlink:href="#DejaVuSans-69" x="987.705078"/>
     <use xlink:href="#DejaVuSans-6f" x="1015.488281"/>
     <use xlink:href="#DejaVuSans-6e" x="1076.669922"/>
     <use xlink:href="#DejaVuSans-20" x="1140.048828"/>
     <use xlink:href="#DejaVuSans-4c" x="1171.835938"/>
     <use xlink:href="#DejaVuSans-6f" x="1225.798828"/>
     <use xlink:href="#DejaVuSans-73" x="1286.980469"/>
     <use xlink:href="#DejaVuSans-73" x="1339.080078"/>
    </g>
   </g>
   <g id="legend_1">
    <g id="patch_7">
     <path d="M 329.7765 56.4415 
L 423.491 56.4415 
Q 425.251 56.4415 425.251 54.6815 
L 425.251 29.728 
Q 425.251 27.968 423.491 27.968 
L 329.7765 27.968 
Q 328.0165 27.968 328.0165 29.728 
L 328.0165 54.6815 
Q 328.0165 56.4415 329.7765 56.4415 
z
" style="fill: #eaeaf2; opacity: 0.8; stroke: #cccccc; stroke-linejoin: miter"/>
    </g>
    <g id="line2d_3">
     <path d="M 331.5365 35.094625 
L 340.3365 35.094625 
L 349.1365 35.094625 
" style="fill: none; stroke: #4c72b0; stroke-width: 1.5; stroke-linecap: round"/>
    </g>
    <g id="text_18">
     <!-- Training Loss -->
     <g style="fill: #262626" transform="translate(356.1765 38.174625) scale(0.088 -0.088)">
      <use xlink:href="#DejaVuSans-54"/>
      <use xlink:href="#DejaVuSans-72" x="46.333984"/>
      <use xlink:href="#DejaVuSans-61" x="87.447266"/>
      <use xlink:href="#DejaVuSans-69" x="148.726562"/>
      <use xlink:href="#DejaVuSans-6e" x="176.509766"/>
      <use xlink:href="#DejaVuSans-69" x="239.888672"/>
      <use xlink:href="#DejaVuSans-6e" x="267.671875"/>
      <use xlink:href="#DejaVuSans-67" x="331.050781"/>
      <use xlink:href="#DejaVuSans-20" x="394.527344"/>
      <use xlink:href="#DejaVuSans-4c" x="426.314453"/>
      <use xlink:href="#DejaVuSans-6f" x="480.277344"/>
      <use xlink:href="#DejaVuSans-73" x="541.458984"/>
      <use xlink:href="#DejaVuSans-73" x="593.558594"/>
     </g>
    </g>
    <g id="line2d_4">
     <path d="M 331.5365 48.011375 
L 340.3365 48.011375 
L 349.1365 48.011375 
" style="fill: none; stroke: #dd8452; stroke-width: 1.5; stroke-linecap: round"/>
    </g>
    <g id="text_19">
     <!-- Validation Loss -->
     <g style="fill: #262626" transform="translate(356.1765 51.091375) scale(0.088 -0.088)">
      <use xlink:href="#DejaVuSans-56"/>
      <use xlink:href="#DejaVuSans-61" x="60.658203"/>
      <use xlink:href="#DejaVuSans-6c" x="121.9375"/>
      <use xlink:href="#DejaVuSans-69" x="149.720703"/>
      <use xlink:href="#DejaVuSans-64" x="177.503906"/>
      <use xlink:href="#DejaVuSans-61" x="240.980469"/>
      <use xlink:href="#DejaVuSans-74" x="302.259766"/>
      <use xlink:href="#DejaVuSans-69" x="341.46875"/>
      <use xlink:href="#DejaVuSans-6f" x="369.251953"/>
      <use xlink:href="#DejaVuSans-6e" x="430.433594"/>
      <use xlink:href="#DejaVuSans-20" x="493.8125"/>
      <use xlink:href="#DejaVuSans-4c" x="525.599609"/>
      <use xlink:href="#DejaVuSans-6f" x="579.5625"/>
      <use xlink:href="#DejaVuSans-73" x="640.744141"/>
      <use xlink:href="#DejaVuSans-73" x="692.84375"/>
     </g>
    </g>
   </g>
  </g>
  <g id="axes_2">
   <g id="patch_8">
    <path d="M 476.919 389.412 
L 853.632 389.412 
L 853.632 23.568 
L 476.919 23.568 
z
" style="fill: #eaeaf2"/>
   </g>
   <g id="matplotlib.axis_3">
    <g id="xtick_9">
     <g id="text_20">
      <!-- 0 -->
      <g style="fill: #262626" transform="translate(491.242818 405.598625) scale(0.088 -0.088)">
       <use xlink:href="#DejaVuSans-30"/>
      </g>
     </g>
    </g>
    <g id="xtick_10">
     <g id="text_21">
      <!-- 25 -->
      <g style="fill: #262626" transform="translate(537.648255 405.598625) scale(0.088 -0.088)">
       <use xlink:href="#DejaVuSans-32"/>
       <use xlink:href="#DejaVuSans-35" x="63.623047"/>
      </g>
     </g>
    </g>
    <g id="xtick_11">
     <g id="text_22">
      <!-- 50 -->
      <g style="fill: #262626" transform="translate(586.853193 405.598625) scale(0.088 -0.088)">
       <use xlink:href="#DejaVuSans-35"/>
       <use xlink:href="#DejaVuSans-30" x="63.623047"/>
      </g>
     </g>
    </g>
    <g id="xtick_12">
     <g id="text_23">
      <!-- 75 -->
      <g style="fill: #262626" transform="translate(636.05813 405.598625) scale(0.088 -0.088)">
       <use xlink:href="#DejaVuSans-37"/>
       <use xlink:href="#DejaVuSans-35" x="63.623047"/>
      </g>
     </g>
    </g>
    <g id="xtick_13">
     <g id="text_24">
      <!-- 100 -->
      <g style="fill: #262626" transform="translate(682.463567 405.598625) scale(0.088 -0.088)">
       <use xlink:href="#DejaVuSans-31"/>
       <use xlink:href="#DejaVuSans-30" x="63.623047"/>
       <use xlink:href="#DejaVuSans-30" x="127.246094"/>
      </g>
     </g>
    </g>
    <g id="xtick_14">
     <g id="text_25">
      <!-- 125 -->
      <g style="fill: #262626" transform="translate(731.668505 405.598625) scale(0.088 -0.088)">
       <use xlink:href="#DejaVuSans-31"/>
       <use xlink:href="#DejaVuSans-32" x="63.623047"/>
       <use xlink:href="#DejaVuSans-35" x="127.246094"/>
      </g>
     </g>
    </g>
    <g id="xtick_15">
     <g id="text_26">
      <!-- 150 -->
      <g style="fill: #262626" transform="translate(780.873442 405.598625) scale(0.088 -0.088)">
       <use xlink:href="#DejaVuSans-31"/>
       <use xlink:href="#DejaVuSans-35" x="63.623047"/>
       <use xlink:href="#DejaVuSans-30" x="127.246094"/>
      </g>
     </g>
    </g>
    <g id="xtick_16">
     <g id="text_27">
      <!-- 175 -->
      <g style="fill: #262626" transform="translate(830.078379 405.598625) scale(0.088 -0.088)">
       <use xlink:href="#DejaVuSans-31"/>
       <use xlink:href="#DejaVuSans-37" x="63.623047"/>
       <use xlink:href="#DejaVuSans-35" x="127.246094"/>
      </g>
     </g>
    </g>
    <g id="text_28">
     <!-- Epoch -->
     <g style="fill: #262626" transform="translate(650.577 418.72325) scale(0.096 -0.096)">
      <use xlink:href="#DejaVuSans-45"/>
      <use xlink:href="#DejaVuSans-70" x="63.183594"/>
      <use xlink:href="#DejaVuSans-6f" x="126.660156"/>
      <use xlink:href="#DejaVuSans-63" x="187.841797"/>
      <use xlink:href="#DejaVuSans-68" x="242.822266"/>
     </g>
    </g>
   </g>
   <g id="matplotlib.axis_4">
    <g id="ytick_7">
     <g id="text_29">
      <!-- 0.2 -->
      <g style="fill: #262626" transform="translate(453.42425 382.432165) scale(0.088 -0.088)">
       <use xlink:href="#DejaVuSans-30"/>
       <use xlink:href="#DejaVuSans-2e" x="63.623047"/>
       <use xlink:href="#DejaVuSans-32" x="95.410156"/>
      </g>
     </g>
    </g>
    <g id="ytick_8">
     <g id="text_30">
      <!-- 0.3 -->
      <g style="fill: #262626" transform="translate(453.42425 315.177479) scale(0.088 -0.088)">
       <defs>
        <path id="DejaVuSans-33" d="M 2597 2516 
Q 3050 2419 3304 2112 
Q 3559 1806 3559 1356 
Q 3559 666 3084 287 
Q 2609 -91 1734 -91 
Q 1441 -91 1130 -33 
Q 819 25 488 141 
L 488 750 
Q 750 597 1062 519 
Q 1375 441 1716 441 
Q 2309 441 2620 675 
Q 2931 909 2931 1356 
Q 2931 1769 2642 2001 
Q 2353 2234 1838 2234 
L 1294 2234 
L 1294 2753 
L 1863 2753 
Q 2328 2753 2575 2939 
Q 2822 3125 2822 3475 
Q 2822 3834 2567 4026 
Q 2313 4219 1838 4219 
Q 1578 4219 1281 4162 
Q 984 4106 628 3988 
L 628 4550 
Q 988 4650 1302 4700 
Q 1616 4750 1894 4750 
Q 2613 4750 3031 4423 
Q 3450 4097 3450 3541 
Q 3450 3153 3228 2886 
Q 3006 2619 2597 2516 
z
" transform="scale(0.015625)"/>
       </defs>
       <use xlink:href="#DejaVuSans-30"/>
       <use xlink:href="#DejaVuSans-2e" x="63.623047"/>
       <use xlink:href="#DejaVuSans-33" x="95.410156"/>
      </g>
     </g>
    </g>
    <g id="ytick_9">
     <g id="text_31">
      <!-- 0.4 -->
      <g style="fill: #262626" transform="translate(453.42425 247.922792) scale(0.088 -0.088)">
       <defs>
        <path id="DejaVuSans-34" d="M 2419 4116 
L 825 1625 
L 2419 1625 
L 2419 4116 
z
M 2253 4666 
L 3047 4666 
L 3047 1625 
L 3713 1625 
L 3713 1100 
L 3047 1100 
L 3047 0 
L 2419 0 
L 2419 1100 
L 313 1100 
L 313 1709 
L 2253 4666 
z
" transform="scale(0.015625)"/>
       </defs>
       <use xlink:href="#DejaVuSans-30"/>
       <use xlink:href="#DejaVuSans-2e" x="63.623047"/>
       <use xlink:href="#DejaVuSans-34" x="95.410156"/>
      </g>
     </g>
    </g>
    <g id="ytick_10">
     <g id="text_32">
      <!-- 0.5 -->
      <g style="fill: #262626" transform="translate(453.42425 180.668106) scale(0.088 -0.088)">
       <use xlink:href="#DejaVuSans-30"/>
       <use xlink:href="#DejaVuSans-2e" x="63.623047"/>
       <use xlink:href="#DejaVuSans-35" x="95.410156"/>
      </g>
     </g>
    </g>
    <g id="ytick_11">
     <g id="text_33">
      <!-- 0.6 -->
      <g style="fill: #262626" transform="translate(453.42425 113.41342) scale(0.088 -0.088)">
       <defs>
        <path id="DejaVuSans-36" d="M 2113 2584 
Q 1688 2584 1439 2293 
Q 1191 2003 1191 1497 
Q 1191 994 1439 701 
Q 1688 409 2113 409 
Q 2538 409 2786 701 
Q 3034 994 3034 1497 
Q 3034 2003 2786 2293 
Q 2538 2584 2113 2584 
z
M 3366 4563 
L 3366 3988 
Q 3128 4100 2886 4159 
Q 2644 4219 2406 4219 
Q 1781 4219 1451 3797 
Q 1122 3375 1075 2522 
Q 1259 2794 1537 2939 
Q 1816 3084 2150 3084 
Q 2853 3084 3261 2657 
Q 3669 2231 3669 1497 
Q 3669 778 3244 343 
Q 2819 -91 2113 -91 
Q 1303 -91 875 529 
Q 447 1150 447 2328 
Q 447 3434 972 4092 
Q 1497 4750 2381 4750 
Q 2619 4750 2861 4703 
Q 3103 4656 3366 4563 
z
" transform="scale(0.015625)"/>
       </defs>
       <use xlink:href="#DejaVuSans-30"/>
       <use xlink:href="#DejaVuSans-2e" x="63.623047"/>
       <use xlink:href="#DejaVuSans-36" x="95.410156"/>
      </g>
     </g>
    </g>
    <g id="ytick_12">
     <g id="text_34">
      <!-- 0.7 -->
      <g style="fill: #262626" transform="translate(453.42425 46.158734) scale(0.088 -0.088)">
       <use xlink:href="#DejaVuSans-30"/>
       <use xlink:href="#DejaVuSans-2e" x="63.623047"/>
       <use xlink:href="#DejaVuSans-37" x="95.410156"/>
      </g>
     </g>
    </g>
    <g id="text_35">
     <!-- Accuracy -->
     <g style="fill: #262626" transform="translate(447.42775 228.405) rotate(-90) scale(0.096 -0.096)">
      <defs>
       <path id="DejaVuSans-41" d="M 2188 4044 
L 1331 1722 
L 3047 1722 
L 2188 4044 
z
M 1831 4666 
L 2547 4666 
L 4325 0 
L 3669 0 
L 3244 1197 
L 1141 1197 
L 716 0 
L 50 0 
L 1831 4666 
z
" transform="scale(0.015625)"/>
       <path id="DejaVuSans-75" d="M 544 1381 
L 544 3500 
L 1119 3500 
L 1119 1403 
Q 1119 906 1312 657 
Q 1506 409 1894 409 
Q 2359 409 2629 706 
Q 2900 1003 2900 1516 
L 2900 3500 
L 3475 3500 
L 3475 0 
L 2900 0 
L 2900 538 
Q 2691 219 2414 64 
Q 2138 -91 1772 -91 
Q 1169 -91 856 284 
Q 544 659 544 1381 
z
M 1991 3584 
L 1991 3584 
z
" transform="scale(0.015625)"/>
       <path id="DejaVuSans-79" d="M 2059 -325 
Q 1816 -950 1584 -1140 
Q 1353 -1331 966 -1331 
L 506 -1331 
L 506 -850 
L 844 -850 
Q 1081 -850 1212 -737 
Q 1344 -625 1503 -206 
L 1606 56 
L 191 3500 
L 800 3500 
L 1894 763 
L 2988 3500 
L 3597 3500 
L 2059 -325 
z
" transform="scale(0.015625)"/>
      </defs>
      <use xlink:href="#DejaVuSans-41"/>
      <use xlink:href="#DejaVuSans-63" x="66.658203"/>
      <use xlink:href="#DejaVuSans-63" x="121.638672"/>
      <use xlink:href="#DejaVuSans-75" x="176.619141"/>
      <use xlink:href="#DejaVuSans-72" x="239.998047"/>
      <use xlink:href="#DejaVuSans-61" x="281.111328"/>
      <use xlink:href="#DejaVuSans-63" x="342.390625"/>
      <use xlink:href="#DejaVuSans-79" x="397.371094"/>
     </g>
    </g>
   </g>
   <g id="line2d_5">
    <path d="M 494.042318 372.782727 
L 496.010516 325.81431 
L 497.978713 295.166058 
L 499.946911 268.705266 
L 501.915108 247.958362 
L 503.883306 233.083891 
L 505.851503 223.313146 
L 511.756096 198.069693 
L 513.724293 195.856314 
L 515.692491 186.927053 
L 517.660688 180.923035 
L 521.597083 172.184208 
L 523.565281 163.908945 
L 525.533478 162.738448 
L 529.469873 154.474209 
L 531.438071 154.605814 
L 533.406268 149.104286 
L 535.374466 148.934758 
L 537.342663 143.467143 
L 539.310861 140.643581 
L 541.279058 135.597681 
L 543.247255 137.000482 
L 545.215453 131.819008 
L 547.18365 128.917677 
L 549.151848 128.882801 
L 551.120045 129.245708 
L 553.088243 125.254695 
L 555.05644 124.273608 
L 557.024638 124.961539 
L 558.992835 117.813922 
L 560.961033 123.613577 
L 562.92923 117.400145 
L 564.897428 119.305476 
L 566.865625 114.074133 
L 568.833823 112.046176 
L 570.80202 115.808935 
L 572.770218 112.556643 
L 574.738415 107.896619 
L 576.706613 107.359254 
L 578.67481 101.46788 
L 580.643008 100.46687 
L 582.611205 103.244532 
L 584.579403 99.574535 
L 586.5476 104.025225 
L 588.515798 101.942429 
L 590.483995 101.676252 
L 592.452193 95.939413 
L 594.42039 97.268415 
L 596.388588 94.069038 
L 598.356785 94.950389 
L 600.324983 95.231518 
L 602.29318 94.544589 
L 604.261378 99.261496 
L 606.229575 93.489742 
L 608.197773 92.813756 
L 610.16597 90.093899 
L 612.134168 93.427928 
L 614.102365 87.192608 
L 616.070563 86.698056 
L 618.03876 89.935395 
L 620.006958 88.540571 
L 621.975155 82.748894 
L 623.943353 84.314207 
L 625.91155 89.06599 
L 627.879748 83.661151 
L 629.847945 81.57142 
L 631.816143 84.40296 
L 633.78434 83.56843 
L 635.752538 81.060954 
L 637.720735 82.482716 
L 639.688933 81.392954 
L 641.65713 79.504579 
L 643.625328 80.810691 
L 645.593525 76.699016 
L 647.561723 79.964216 
L 649.52992 76.053937 
L 651.498118 74.014035 
L 653.466315 76.359039 
L 655.434513 72.948244 
L 657.40271 71.584326 
L 661.339105 69.992114 
L 663.307303 74.195508 
L 665.2755 73.078847 
L 667.243697 69.293159 
L 669.211895 67.31511 
L 671.180092 68.613204 
L 673.14829 69.606237 
L 675.116487 72.81263 
L 677.084685 69.645122 
L 679.052882 67.663064 
L 681.02108 68.543413 
L 682.989277 65.916277 
L 684.957475 64.486537 
L 686.925672 66.499542 
L 688.89387 67.249287 
L 690.862067 61.608176 
L 692.830265 66.588254 
L 694.798462 63.891326 
L 696.76666 64.347997 
L 698.734857 63.713862 
L 700.703055 62.485558 
L 702.671252 66.093742 
L 704.63945 55.770639 
L 706.607647 61.66999 
L 708.575845 65.166531 
L 710.544042 61.168503 
L 712.51224 62.353913 
L 714.480437 58.98104 
L 716.448635 57.381852 
L 718.416832 56.34292 
L 720.38503 58.263203 
L 722.353227 59.665965 
L 724.321425 55.067755 
L 726.289622 54.758685 
L 728.25782 63.718832 
L 730.226017 56.458611 
L 732.194215 53.267131 
L 734.162412 57.31603 
L 736.13061 53.847389 
L 738.098807 54.062776 
L 740.067005 54.616096 
L 742.035202 54.526381 
L 744.0034 50.052761 
L 745.971597 49.337891 
L 747.939795 50.145483 
L 749.907992 50.408693 
L 751.87619 53.175412 
L 753.844387 52.992976 
L 755.812585 49.898226 
L 757.780782 51.5094 
L 759.74898 51.474484 
L 761.717177 50.55926 
L 763.685375 48.360853 
L 765.653572 50.759654 
L 767.62177 46.988918 
L 769.589967 49.894218 
L 771.558165 53.742722 
L 773.526362 48.336881 
L 775.49456 47.557231 
L 777.462757 48.276069 
L 779.430955 45.540257 
L 781.399152 47.649952 
L 783.36735 46.772569 
L 785.335547 49.442599 
L 787.303745 46.644973 
L 789.271942 50.037809 
L 791.240139 45.537291 
L 793.208337 44.388721 
L 795.176534 47.297989 
L 797.144732 45.424647 
L 799.112929 46.127491 
L 801.081127 44.334884 
L 803.049324 45.235196 
L 805.017522 45.060698 
L 806.985719 45.737685 
L 808.953917 43.419619 
L 810.922114 40.197273 
L 812.890312 46.358792 
L 814.858509 43.986929 
L 816.826707 42.723711 
L 818.794904 45.962012 
L 820.763102 46.088646 
L 822.731299 45.428615 
L 824.699497 45.621033 
L 826.667694 44.3698 
L 828.635892 46.401685 
L 830.604089 44.087628 
L 832.572287 40.908134 
L 834.540484 42.086609 
L 836.508682 45.892221 
L 836.508682 45.892221 
" clip-path="url(#p5ffbfe7bba)" style="fill: none; stroke: #4c72b0; stroke-width: 1.5; stroke-linecap: round"/>
   </g>
   <g id="line2d_6">
    <path d="M 494.042318 369.767009 
L 496.010516 332.85708 
L 497.978713 315.325147 
L 499.946911 315.9582 
L 501.915108 294.414148 
L 503.883306 299.473357 
L 505.851503 297.40828 
L 507.819701 282.704519 
L 509.787898 288.60383 
L 511.756096 278.805305 
L 513.724293 280.006369 
L 515.692491 274.521136 
L 517.660688 270.982924 
L 519.628886 262.746506 
L 521.597083 258.977313 
L 523.565281 254.060092 
L 525.533478 246.030702 
L 527.501676 249.953869 
L 529.469873 247.036704 
L 531.438071 249.385837 
L 533.406268 250.598867 
L 535.374466 243.770542 
L 537.342663 230.060857 
L 539.310861 230.847883 
L 541.279058 230.989891 
L 543.247255 236.037134 
L 545.215453 233.688021 
L 547.18365 226.161622 
L 549.151848 231.610957 
L 551.120045 219.901349 
L 553.088243 230.202864 
L 555.05644 223.244497 
L 557.024638 211.43395 
L 558.992835 221.966426 
L 560.961033 223.735542 
L 562.92923 224.096545 
L 564.897428 218.339262 
L 566.865625 211.303908 
L 568.833823 213.357019 
L 570.80202 211.43395 
L 572.770218 216.481173 
L 574.738415 211.226901 
L 576.706613 207.818731 
L 578.67481 203.919517 
L 580.643008 204.61759 
L 582.611205 194.251053 
L 584.579403 207.599756 
L 586.5476 204.682611 
L 588.515798 200.925405 
L 590.483995 194.807099 
L 592.452193 205.108615 
L 594.42039 203.40454 
L 596.388588 202.6295 
L 598.356785 189.20379 
L 600.324983 193.594029 
L 602.29318 203.907551 
L 604.261378 190.68887 
L 606.229575 184.919621 
L 608.197773 194.316074 
L 610.16597 194.576118 
L 612.134168 199.570347 
L 614.102365 194.665091 
L 616.070563 182.363499 
L 618.03876 181.925509 
L 620.006958 192.084997 
L 621.975155 195.647181 
L 623.943353 193.736037 
L 625.91155 189.179838 
L 627.879748 189.74787 
L 629.847945 193.736037 
L 633.78434 187.11474 
L 635.752538 177.09726 
L 637.720735 184.931587 
L 639.688933 179.73035 
L 641.65713 176.76021 
L 643.625328 170.499876 
L 645.593525 172.706981 
L 647.561723 176.334166 
L 649.52992 178.801335 
L 651.498118 183.280547 
L 653.466315 173.701057 
L 655.434513 174.476097 
L 657.40271 180.23338 
L 659.370908 171.274956 
L 661.339105 165.801689 
L 663.307303 177.730293 
L 665.2755 179.949364 
L 667.243697 166.150686 
L 669.211895 178.7483 
L 671.180092 170.706925 
L 673.14829 188.688813 
L 675.116487 182.801468 
L 677.084685 168.511765 
L 679.052882 176.192178 
L 681.02108 171.558972 
L 682.989277 170.073872 
L 684.957475 177.470229 
L 686.925672 178.529285 
L 688.89387 171.842988 
L 690.862067 171.558972 
L 692.830265 170.085858 
L 694.798462 167.363756 
L 696.76666 166.730704 
L 698.734857 160.352354 
L 700.703055 169.363813 
L 702.671252 172.280978 
L 704.63945 170.345902 
L 706.607647 174.825134 
L 708.575845 163.103519 
L 710.544042 165.168637 
L 712.51224 163.180526 
L 714.480437 165.387632 
L 716.448635 169.221825 
L 718.416832 161.68344 
L 720.38503 169.144858 
L 722.353227 168.369777 
L 724.321425 160.624384 
L 726.289622 162.12143 
L 728.25782 170.576883 
L 730.226017 158.908303 
L 732.194215 171.416944 
L 734.162412 163.736572 
L 736.13061 150.594878 
L 738.098807 169.919898 
L 740.067005 166.523655 
L 742.035202 168.653793 
L 744.0034 173.340034 
L 745.971597 169.055865 
L 747.939795 160.547417 
L 749.907992 158.482299 
L 751.87619 167.07974 
L 753.844387 164.446591 
L 755.812585 152.517967 
L 757.780782 160.624384 
L 759.74898 162.754522 
L 761.717177 163.748558 
L 763.685375 160.121373 
L 765.653572 162.251472 
L 767.62177 158.27529 
L 769.589967 160.340368 
L 771.558165 169.00283 
L 773.526362 153.358069 
L 775.49456 158.482299 
L 777.462757 156.985213 
L 779.430955 156.340215 
L 781.399152 152.582988 
L 783.36735 159.334347 
L 785.335547 150.038872 
L 787.303745 152.529993 
L 789.271942 159.476335 
L 791.240139 153.642085 
L 793.208337 160.405389 
L 795.176534 167.801746 
L 797.144732 152.091964 
L 799.112929 155.500153 
L 801.081127 153.163006 
L 803.049324 155.565134 
L 805.017522 155.293145 
L 806.985719 158.121277 
L 808.953917 153.358069 
L 810.922114 153.861039 
L 812.890312 165.647675 
L 814.858509 152.287027 
L 816.826707 152.014957 
L 818.794904 157.293201 
L 820.763102 154.352104 
L 822.731299 153.861039 
L 824.699497 150.529897 
L 826.667694 155.281118 
L 828.635892 154.660092 
L 830.604089 156.080171 
L 832.572287 153.654031 
L 834.540484 159.772376 
L 836.508682 158.636313 
L 836.508682 158.636313 
" clip-path="url(#p5ffbfe7bba)" style="fill: none; stroke: #dd8452; stroke-width: 1.5; stroke-linecap: round"/>
   </g>
   <g id="patch_9">
    <path d="M 476.919 389.412 
L 476.919 23.568 
" style="fill: none; stroke: #ffffff; stroke-width: 1.25; stroke-linejoin: miter; stroke-linecap: square"/>
   </g>
   <g id="patch_10">
    <path d="M 853.632 389.412 
L 853.632 23.568 
" style="fill: none; stroke: #ffffff; stroke-width: 1.25; stroke-linejoin: miter; stroke-linecap: square"/>
   </g>
   <g id="patch_11">
    <path d="M 476.919 389.412 
L 853.632 389.412 
" style="fill: none; stroke: #ffffff; stroke-width: 1.25; stroke-linejoin: miter; stroke-linecap: square"/>
   </g>
   <g id="patch_12">
    <path d="M 476.919 23.568 
L 853.632 23.568 
" style="fill: none; stroke: #ffffff; stroke-width: 1.25; stroke-linejoin: miter; stroke-linecap: square"/>
   </g>
   <g id="text_36">
    <!-- Training and Validation Accuracy -->
    <g style="fill: #262626" transform="translate(587.1135 17.568) scale(0.096 -0.096)">
     <use xlink:href="#DejaVuSans-54"/>
     <use xlink:href="#DejaVuSans-72" x="46.333984"/>
     <use xlink:href="#DejaVuSans-61" x="87.447266"/>
     <use xlink:href="#DejaVuSans-69" x="148.726562"/>
     <use xlink:href="#DejaVuSans-6e" x="176.509766"/>
     <use xlink:href="#DejaVuSans-69" x="239.888672"/>
     <use xlink:href="#DejaVuSans-6e" x="267.671875"/>
     <use xlink:href="#DejaVuSans-67" x="331.050781"/>
     <use xlink:href="#DejaVuSans-20" x="394.527344"/>
     <use xlink:href="#DejaVuSans-61" x="426.314453"/>
     <use xlink:href="#DejaVuSans-6e" x="487.59375"/>
     <use xlink:href="#DejaVuSans-64" x="550.972656"/>
     <use xlink:href="#DejaVuSans-20" x="614.449219"/>
     <use xlink:href="#DejaVuSans-56" x="646.236328"/>
     <use xlink:href="#DejaVuSans-61" x="706.894531"/>
     <use xlink:href="#DejaVuSans-6c" x="768.173828"/>
     <use xlink:href="#DejaVuSans-69" x="795.957031"/>
     <use xlink:href="#DejaVuSans-64" x="823.740234"/>
     <use xlink:href="#DejaVuSans-61" x="887.216797"/>
     <use xlink:href="#DejaVuSans-74" x="948.496094"/>
     <use xlink:href="#DejaVuSans-69" x="987.705078"/>
     <use xlink:href="#DejaVuSans-6f" x="1015.488281"/>
     <use xlink:href="#DejaVuSans-6e" x="1076.669922"/>
     <use xlink:href="#DejaVuSans-20" x="1140.048828"/>
     <use xlink:href="#DejaVuSans-41" x="1171.835938"/>
     <use xlink:href="#DejaVuSans-63" x="1238.494141"/>
     <use xlink:href="#DejaVuSans-63" x="1293.474609"/>
     <use xlink:href="#DejaVuSans-75" x="1348.455078"/>
     <use xlink:href="#DejaVuSans-72" x="1411.833984"/>
     <use xlink:href="#DejaVuSans-61" x="1452.947266"/>
     <use xlink:href="#DejaVuSans-63" x="1514.226562"/>
     <use xlink:href="#DejaVuSans-79" x="1569.207031"/>
    </g>
   </g>
   <g id="legend_2">
    <g id="patch_13">
     <path d="M 483.079 56.4415 
L 597.66875 56.4415 
Q 599.42875 56.4415 599.42875 54.6815 
L 599.42875 29.728 
Q 599.42875 27.968 597.66875 27.968 
L 483.079 27.968 
Q 481.319 27.968 481.319 29.728 
L 481.319 54.6815 
Q 481.319 56.4415 483.079 56.4415 
z
" style="fill: #eaeaf2; opacity: 0.8; stroke: #cccccc; stroke-linejoin: miter"/>
    </g>
    <g id="line2d_7">
     <path d="M 484.839 35.094625 
L 493.639 35.094625 
L 502.439 35.094625 
" style="fill: none; stroke: #4c72b0; stroke-width: 1.5; stroke-linecap: round"/>
    </g>
    <g id="text_37">
     <!-- Training Accuracy -->
     <g style="fill: #262626" transform="translate(509.479 38.174625) scale(0.088 -0.088)">
      <use xlink:href="#DejaVuSans-54"/>
      <use xlink:href="#DejaVuSans-72" x="46.333984"/>
      <use xlink:href="#DejaVuSans-61" x="87.447266"/>
      <use xlink:href="#DejaVuSans-69" x="148.726562"/>
      <use xlink:href="#DejaVuSans-6e" x="176.509766"/>
      <use xlink:href="#DejaVuSans-69" x="239.888672"/>
      <use xlink:href="#DejaVuSans-6e" x="267.671875"/>
      <use xlink:href="#DejaVuSans-67" x="331.050781"/>
      <use xlink:href="#DejaVuSans-20" x="394.527344"/>
      <use xlink:href="#DejaVuSans-41" x="426.314453"/>
      <use xlink:href="#DejaVuSans-63" x="492.972656"/>
      <use xlink:href="#DejaVuSans-63" x="547.953125"/>
      <use xlink:href="#DejaVuSans-75" x="602.933594"/>
      <use xlink:href="#DejaVuSans-72" x="666.3125"/>
      <use xlink:href="#DejaVuSans-61" x="707.425781"/>
      <use xlink:href="#DejaVuSans-63" x="768.705078"/>
      <use xlink:href="#DejaVuSans-79" x="823.685547"/>
     </g>
    </g>
    <g id="line2d_8">
     <path d="M 484.839 48.011375 
L 493.639 48.011375 
L 502.439 48.011375 
" style="fill: none; stroke: #dd8452; stroke-width: 1.5; stroke-linecap: round"/>
    </g>
    <g id="text_38">
     <!-- Validation Accuracy -->
     <g style="fill: #262626" transform="translate(509.479 51.091375) scale(0.088 -0.088)">
      <use xlink:href="#DejaVuSans-56"/>
      <use xlink:href="#DejaVuSans-61" x="60.658203"/>
      <use xlink:href="#DejaVuSans-6c" x="121.9375"/>
      <use xlink:href="#DejaVuSans-69" x="149.720703"/>
      <use xlink:href="#DejaVuSans-64" x="177.503906"/>
      <use xlink:href="#DejaVuSans-61" x="240.980469"/>
      <use xlink:href="#DejaVuSans-74" x="302.259766"/>
      <use xlink:href="#DejaVuSans-69" x="341.46875"/>
      <use xlink:href="#DejaVuSans-6f" x="369.251953"/>
      <use xlink:href="#DejaVuSans-6e" x="430.433594"/>
      <use xlink:href="#DejaVuSans-20" x="493.8125"/>
      <use xlink:href="#DejaVuSans-41" x="525.599609"/>
      <use xlink:href="#DejaVuSans-63" x="592.257812"/>
      <use xlink:href="#DejaVuSans-63" x="647.238281"/>
      <use xlink:href="#DejaVuSans-75" x="702.21875"/>
      <use xlink:href="#DejaVuSans-72" x="765.597656"/>
      <use xlink:href="#DejaVuSans-61" x="806.710938"/>
      <use xlink:href="#DejaVuSans-63" x="867.990234"/>
      <use xlink:href="#DejaVuSans-79" x="922.970703"/>
     </g>
    </g>
   </g>
  </g>
 </g>
 <defs>
  <clipPath id="p91e1d79ebf">
   <rect x="52.938" y="23.568" width="376.713" height="365.844"/>
  </clipPath>
  <clipPath id="p5ffbfe7bba">
   <rect x="476.919" y="23.568" width="376.713" height="365.844"/>
  </clipPath>
 </defs>
</svg>
